<?xml version="1.0" standalone="no"?>
<!DOCTYPE svg PUBLIC "-//W3C//DTD SVG 20010904//EN"
 "http://www.w3.org/TR/2001/REC-SVG-20010904/DTD/svg10.dtd">
<svg version="1.0" xmlns="http://www.w3.org/2000/svg"
 width="512.000000pt" height="512.000000pt" viewBox="0 0 512.000000 512.000000"
 preserveAspectRatio="xMidYMid meet">

<g transform="translate(0.000000,512.000000) scale(0.100000,-0.100000)"
fill="#000000" stroke="none">
<path d="M975 5106 c-66 -29 -95 -84 -95 -179 -1 -162 -68 -325 -184 -442
-115 -116 -233 -170 -403 -184 -103 -9 -130 -22 -170 -81 -28 -40 -29 -91 -8
-316 40 -425 122 -813 257 -1219 321 -970 896 -1775 1701 -2381 147 -111 384
-272 430 -292 36 -15 78 -15 114 0 46 20 283 181 430 292 363 273 700 609 964
961 557 740 901 1654 994 2639 21 225 20 276 -7 316 -41 59 -68 72 -171 81
-169 14 -288 68 -402 183 -117 119 -171 244 -184 432 -8 112 -18 136 -75 178
-27 21 -29 21 -1594 23 -1291 2 -1572 0 -1597 -11z m2960 -333 c75 -379 324
-659 672 -755 l83 -23 0 -37 c0 -20 -9 -107 -20 -193 -161 -1235 -718 -2289
-1610 -3045 -129 -110 -356 -280 -472 -355 -33 -20 -19 -28 -203 103 -363 259
-665 542 -934 877 -472 587 -804 1323 -950 2103 -33 172 -71 450 -71 510 l0
37 83 23 c241 67 441 225 562 444 57 105 82 175 111 316 l4 22 1370 0 1370 0
5 -27z"/>
<path d="M2435 4393 c-441 -37 -868 -307 -1090 -688 -122 -210 -182 -417 -192
-665 -19 -495 214 -953 625 -1227 264 -176 577 -258 889 -232 337 27 623 155
865 388 129 123 213 237 287 386 113 228 146 373 146 630 0 258 -32 401 -139
620 -256 525 -809 838 -1391 788z m375 -342 c437 -113 745 -437 826 -868 22
-118 15 -353 -15 -465 -151 -575 -726 -928 -1299 -798 -373 84 -677 357 -798
716 -73 219 -73 487 0 701 129 378 458 658 854 729 107 19 333 11 432 -15z"/>
<path d="M3132 3455 c-19 -8 -204 -161 -413 -340 -209 -179 -384 -323 -389
-320 -6 3 -69 76 -142 161 -72 85 -144 162 -159 170 -15 8 -50 14 -76 14 -90
0 -153 -63 -153 -153 0 -27 5 -58 12 -70 6 -12 99 -125 206 -251 158 -185 204
-232 239 -248 47 -21 99 -17 142 9 14 9 226 188 471 399 455 390 480 415 480
481 0 52 -40 116 -90 141 -51 25 -81 27 -128 7z"/>
</g>
</svg>
